<?xml version="1.0" encoding="utf-8"?>
<!-- Generator: Adobe Illustrator 25.1.0, SVG Export Plug-In . SVG Version: 6.00 Build 0)  -->
<svg version="1.1" id="Layer_1" xmlns="http://www.w3.org/2000/svg" xmlns:xlink="http://www.w3.org/1999/xlink" x="0px" y="0px"
	 viewBox="0 0 211 53.8" style="enable-background:new 0 0 211 53.8;" xml:space="preserve">
<style type="text/css">
	.st0{fill-rule:evenodd;clip-rule:evenodd;fill:#FFFFFF;}
	.st1{fill:#FFFFFF;}
</style>
<g>
	<path class="st0" d="M0,17.5C0,8.2,7.6,0.6,16.9,0.6h18.8c9.3,0,16.9,7.6,16.9,16.9v18.8c0,9.3-7.6,16.9-16.9,16.9H16.9
		C7.6,53.2,0,45.6,0,36.3V17.5z M20.8,22.4v-9.6h-4.7v18.4v1.2h0.1c0.6,5.3,5.1,9.4,10.5,9.4c5.8,0,10.6-4.7,10.6-10.6h-4.7
		c0,3.2-2.6,5.9-5.9,5.9s-5.9-2.6-5.9-5.9c0-3.2,2.6-5.9,5.9-5.9v-4.7C24.5,20.6,22.4,21.3,20.8,22.4z M31.8,20.6l2.3,4.3l-2.3,4.3
		h-3.2l2.3-4.3l-2.3-4.3H31.8z M39.6,24.9l-2.3-4.3h-3.2l2.3,4.3l-2.3,4.3h3.2L39.6,24.9z"/>
	<path class="st1" d="M75.1,38c-2.2,0-3.9-0.9-5-2.6h-0.1v2.1h-4.2V14.3h4.4v8.6h0.1c1.1-1.6,2.6-2.5,4.6-2.5c2.1,0,3.8,0.8,5.2,2.5
		c1.3,1.6,2,3.7,2,6.3c0,2.7-0.6,4.8-1.9,6.4C78.9,37.2,77.2,38,75.1,38z M74.1,34.3c1.1,0,2-0.4,2.6-1.3c0.6-0.9,0.9-2.1,0.9-3.8
		c0-1.6-0.3-2.9-1-3.8c-0.6-1-1.5-1.4-2.7-1.4c-2.6,0-3.8,1.8-3.8,5.3c0,1.5,0.4,2.8,1.1,3.7C71.9,33.8,72.9,34.3,74.1,34.3z"/>
	<path class="st1" d="M83.6,37.5V14.3H88v23.2H83.6z"/>
	<path class="st1" d="M104.4,35.5c-1.6,1.7-3.7,2.5-6.3,2.5c-2.6,0-4.6-0.8-6.3-2.5c-1.6-1.7-2.4-3.8-2.4-6.3c0-2.5,0.8-4.6,2.4-6.3
		c1.6-1.7,3.7-2.5,6.3-2.5c2.6,0,4.6,0.8,6.3,2.5c1.6,1.7,2.4,3.8,2.4,6.3C106.8,31.7,106,33.8,104.4,35.5z M98.2,34.6
		c1.3,0,2.3-0.5,3.1-1.5c0.8-1,1.1-2.3,1.1-4s-0.4-3-1.1-4c-0.7-1-1.8-1.5-3.1-1.5c-1.3,0-2.4,0.5-3.1,1.5c-0.7,1-1.1,2.3-1.1,4
		c0,1.6,0.4,3,1.1,4C95.8,34.1,96.8,34.6,98.2,34.6z"/>
	<path class="st1" d="M116,38c-2.6,0-4.6-0.8-6.2-2.5c-1.6-1.7-2.3-3.8-2.3-6.3c0-2.5,0.8-4.6,2.3-6.3c1.5-1.7,3.5-2.5,6-2.5
		c2.1,0,3.8,0.6,5.1,1.7c1.3,1.1,2.1,2.6,2.4,4.4H119c-0.2-0.8-0.5-1.4-1-1.8c-0.5-0.5-1.2-0.7-2-0.7c-1.3,0-2.3,0.5-3,1.4
		s-1,2.2-1,3.9c0,1.6,0.3,2.9,1,3.9c0.7,0.9,1.7,1.4,3,1.4c1.9,0,3-0.9,3.3-2.8h4.2c-0.2,1.8-0.9,3.4-2.2,4.6
		C119.9,37.4,118.1,38,116,38z"/>
	<path class="st1" d="M135.7,37.5l-4.7-7.6l-1.9,2v5.6h-4.4V14.3h4.4v12.8l5.9-6.3h5.3l-6.1,6.3l6.9,10.3H135.7z"/>
	<path class="st1" d="M149.1,38c-2.7,0-4.8-0.8-6.3-2.5c-1.5-1.7-2.3-3.8-2.3-6.4c0-2.5,0.8-4.6,2.3-6.2c1.5-1.7,3.5-2.5,5.9-2.5
		c2.6,0,4.6,0.9,6.1,2.7c1.4,1.8,2.1,4.2,2.1,7.3h-12.1c0.2,1.3,0.6,2.3,1.3,3.1c0.7,0.7,1.7,1.1,2.9,1.1c1.6,0,2.7-0.7,3.2-2h4.3
		c-0.3,1.6-1.1,2.9-2.5,3.9S151.2,38,149.1,38z M148.8,23.8c-2.1,0-3.4,1.2-3.9,3.6h7.4c-0.1-1.1-0.4-1.9-1.1-2.6
		C150.6,24.1,149.7,23.8,148.8,23.8z"/>
	<path class="st1" d="M165.2,38c-2.1,0-3.8-0.8-5.1-2.4c-1.3-1.6-1.9-3.7-1.9-6.4c0-2.6,0.7-4.7,2-6.3c1.3-1.6,3-2.5,5.1-2.5
		s3.6,0.8,4.7,2.5h0.1v-8.6h4.4v23.2h-4.2v-2.2h-0.1C169,37.1,167.4,38,165.2,38z M166.1,34.3c1.3,0,2.3-0.4,3-1.3
		c0.7-0.9,1-2.1,1-3.7c0-3.5-1.3-5.3-3.9-5.3c-1.2,0-2.1,0.5-2.7,1.4c-0.6,1-0.9,2.2-0.9,3.8c0,1.6,0.3,2.9,0.9,3.8
		C164.1,33.8,165,34.3,166.1,34.3z"/>
	<path class="st1" d="M184.6,43.1c-2.2,0-4.1-0.5-5.4-1.4c-1.3-0.9-2.1-2.2-2.4-3.8h4.4c0.4,1.2,1.5,1.8,3.3,1.8
		c2.5,0,3.7-1.2,3.7-3.5v-1.8h-0.1c-1.1,1.3-2.6,1.9-4.3,1.9c-2,0-3.7-0.7-5.2-2.2c-1.4-1.4-2.2-3.4-2.2-5.8c0-2.5,0.7-4.4,2-5.9
		c1.3-1.5,3.1-2.2,5.2-2.2c2,0,3.5,0.7,4.6,2.2h0.1v-1.8h4.2v15.4c0,2.2-0.7,3.8-2,5.1C189.3,42.5,187.3,43.1,184.6,43.1z
		 M184.6,32.9c1.3,0,2.3-0.4,3-1.3c0.6-0.8,1-1.9,1-3.2c0-1.3-0.3-2.4-1-3.2c-0.7-0.9-1.6-1.3-2.9-1.3c-1.1,0-2,0.4-2.7,1.2
		c-0.7,0.8-1,1.9-1,3.3c0,1.4,0.3,2.5,1,3.3C182.5,32.5,183.4,32.9,184.6,32.9z"/>
	<path class="st1" d="M203.3,38c-2.7,0-4.8-0.8-6.3-2.5c-1.5-1.7-2.3-3.8-2.3-6.4c0-2.5,0.8-4.6,2.3-6.2c1.5-1.7,3.5-2.5,5.9-2.5
		c2.6,0,4.6,0.9,6.1,2.7c1.4,1.8,2.1,4.2,2.1,7.3H199c0.2,1.3,0.6,2.3,1.3,3.1c0.7,0.7,1.7,1.1,2.9,1.1c1.6,0,2.7-0.7,3.2-2h4.3
		c-0.3,1.6-1.1,2.9-2.5,3.9C207,37.4,205.3,38,203.3,38z M202.9,23.8c-2.1,0-3.4,1.2-3.9,3.6h7.4c-0.1-1.1-0.4-1.9-1.1-2.6
		C204.7,24.1,203.9,23.8,202.9,23.8z"/>
</g>
</svg>
